<?xml version="1.0" standalone="no"?>
<!DOCTYPE svg PUBLIC "-//W3C//DTD SVG 20010904//EN"
 "http://www.w3.org/TR/2001/REC-SVG-20010904/DTD/svg10.dtd">
<svg version="1.0" xmlns="http://www.w3.org/2000/svg"
 width="512.000000pt" height="512.000000pt" viewBox="0 0 512.000000 512.000000"
 preserveAspectRatio="xMidYMid meet">

<g transform="translate(0.000000,512.000000) scale(0.100000,-0.100000)"
fill="#000000" stroke="none">
<path d="M2492 4464 c-18 -10 -45 -33 -60 -52 -26 -34 -27 -40 -30 -188 l-3
-153 -47 -6 c-238 -33 -511 -144 -693 -283 l-54 -41 -100 98 c-55 54 -110 104
-122 110 -12 6 -43 11 -70 11 -57 0 -105 -26 -133 -72 -22 -37 -27 -116 -9
-151 6 -12 56 -67 110 -122 l98 -100 -41 -54 c-139 -182 -250 -452 -284 -693
l-6 -48 -140 0 c-159 0 -191 -9 -236 -68 -37 -48 -38 -131 -3 -181 41 -57 86
-71 243 -71 l137 0 6 -48 c33 -237 140 -502 279 -687 l45 -60 -98 -100 c-55
-55 -104 -110 -110 -122 -6 -12 -11 -43 -11 -70 0 -90 63 -153 153 -153 27 0
58 5 70 11 12 6 67 55 122 110 l100 98 60 -45 c83 -63 233 -145 341 -188 89
-35 254 -78 346 -91 l47 -6 3 -152 c3 -140 5 -154 26 -185 53 -74 156 -92 226
-39 57 44 66 77 66 235 l0 141 48 6 c234 32 487 134 683 275 l66 48 94 -95
c109 -109 131 -123 196 -123 90 0 153 63 153 153 0 27 -5 58 -11 70 -6 12 -55
67 -110 122 l-98 100 45 60 c139 185 246 450 279 688 l6 47 141 0 c158 0 191
9 235 66 53 70 35 173 -39 226 -31 21 -45 23 -185 26 l-152 3 -6 47 c-32 237
-140 503 -279 687 l-45 60 98 100 c55 55 104 110 110 122 18 35 13 114 -9 151
-28 46 -76 72 -133 72 -27 0 -58 -5 -70 -11 -12 -6 -67 -55 -122 -110 l-100
-98 -60 45 c-185 139 -450 246 -687 279 l-48 6 0 140 c0 157 -12 198 -71 240
-41 29 -113 35 -157 13z m313 -736 c389 -76 718 -354 868 -733 129 -326 101
-725 -73 -1025 -221 -381 -603 -602 -1040 -602 -489 0 -919 286 -1105 736
-219 529 -30 1138 451 1455 265 175 574 233 899 169z"/>
<path d="M2096 3345 c-192 -53 -350 -213 -401 -405 -8 -30 -15 -93 -15 -140 0
-158 52 -283 165 -395 112 -113 237 -165 395 -165 158 0 283 52 395 165 113
112 165 237 165 395 0 158 -52 283 -165 395 -75 76 -157 124 -255 150 -68 18
-218 18 -284 0z m250 -333 c84 -43 128 -117 128 -212 0 -137 -96 -234 -234
-234 -138 0 -234 97 -234 234 0 112 62 195 174 231 38 13 123 3 166 -19z"/>
</g>
</svg>
